<svg width="358" height="358" viewBox="0 0 358 263" xmlns="http://www.w3.org/2000/svg">
    <defs>
        <style>
            :root {
            --dark: rgba(57, 57, 61, 1);
            --dark-disabled: rgba(57, 57, 61, .2);
            --light: rgba(247, 248, 251, 1);
            --light-disabled: rgba(247, 248, 251, .2);
            }
            g[id] { display: none }
            g[id]:target { display: inline }
        </style>

        <path id="_part1"
              d="M717.3 406.4c23.7-3.4 57.7-6.4 97.3 1.4 36.2 7.1 61.9 38.6 67.3 75.1 2.9 19.3 3.9 43.6.7 73-8.7 80-42.2 94.5-96.3 103.8-27.5 4.7-55.8 2.4-81.7-8-31-12.4-63.2-37.7-63.6-89.2-.3-33.4-.1-57 1-74.6 2.6-41.6 34-75.7 75.3-81.5Z"/>
        <path id="_part2"
              d="M759.2 663.8c-19.3 0-37.9-3.5-55.2-10.4-29.3-11.7-64.3-37-64.7-90.8-.3-37 0-58.6 1-74.7 2.6-42.2 34.9-77.2 76.8-83.2 10.6-1.5 27-3.5 46.5-3.5 17.5 0 34.8 1.7 51.4 4.9 35.3 6.9 62.9 37.7 68.7 76.5 3.3 22.4 3.6 47.1.7 73.5-9.1 83.7-46.2 96.4-97.7 105.3-9.2 1.6-18.4 2.4-27.5 2.4Zm4.3-259.2c-19.2 0-35.4 2-46 3.5-40.2 5.7-71.3 39.3-73.8 79.9-1 16-1.3 37.6-1 74.5.4 51.9 34.2 76.3 62.5 87.6 16.9 6.8 35 10.2 53.9 10.2 8.9 0 17.9-.8 26.8-2.3 51.5-8.9 86-20.8 94.8-102.3 2.8-26.1 2.6-50.5-.7-72.6-5.6-37.4-32-67-65.9-73.6-16.3-3.3-33.3-4.9-50.6-4.9Z"/>
        <path id="_part3"
              d="M881.9 482.8c-5.4-36.5-31.1-68-67.3-75.1-39.6-7.7-73.6-4.7-97.3-1.4-41.3 5.9-72.7 39.9-75.3 81.6-1.1 17.6-1.3 41.2-1 74.6.4 45.6 25.7 70.7 53 84.4-.7-2.1-1.1-4.2-1.1-6.3 0-19.9 30.6-36.1 68.3-36.1 37.7 0 68.3 16.2 68.3 36.1 0 2.9-.7 5.7-1.8 8.3 29.9-12.3 48.7-36 54.9-93.1 3.2-29.4 2.1-53.7-.7-73Z"/>
        <path id="_part4"
              d="M881.9 482.8c-5.4-36.5-31.1-68-67.3-75.1-39.6-7.7-73.6-4.7-97.3-1.4-41.3 5.9-72.7 39.9-75.3 81.6-1.1 17.6-1.3 41.2-1 74.6.3 36.9 16.9 60.3 37.7 75.2 0-.6-.1-1.2-.1-1.8 0-26.8 37-48.6 82.6-48.6 45.6 0 82.6 21.7 82.6 48.6 0 1.6-.1 3.1-.4 4.6 20.8-14.1 34.1-38.5 39.1-84.7 3.3-29.4 2.2-53.7-.6-73Z"/>
        <path id="_part5"
              d="m841.2 644.2.6-4c.2-1.5.4-2.9.4-4.3 0-25.8-36.3-46.8-80.9-46.8-44.6 0-80.9 21-80.9 46.8 0 .5 0 1 .1 1.5l.2 3.6-3-2c-25.2-18.1-38.2-43.9-38.4-76.6-.3-37 0-58.6 1-74.7 2.6-42.2 34.9-77.2 76.8-83.2 10.6-1.5 27-3.5 46.5-3.5 17.5 0 34.8 1.7 51.4 4.9 35.3 6.9 62.9 37.7 68.7 76.5 3.3 22.4 3.6 47.1.7 73.5-4.8 44-17.1 70.5-39.8 85.9l-3.4 2.4Zm-79.9-58.6c46.5 0 84.3 22.6 84.3 50.3v1c19.9-15.1 30.8-40.4 35.3-81.2 2.8-26.1 2.6-50.5-.7-72.6-5.6-37.4-32-67-65.9-73.6-16.4-3.2-33.5-4.8-50.7-4.8-19.2 0-35.4 2-46 3.5-40.2 5.7-71.3 39.3-73.8 79.9-1 16-1.3 37.6-1 74.5.3 30.4 11.8 54.5 34.2 71.8 1.5-27.1 38.7-48.8 84.3-48.8Z"/>
        <path id="_part6"
              d="M878.1 428.2s35.7 107.8 13.3 169.1c0 0 37.3 11.6 43.1-7.5 5.8-19 0-160-56.4-161.6Z"/>
        <path id="_part7"
              d="M913.8 602.5c-11.2 0-22.4-3.4-22.9-3.6l-1.7-.5.6-1.7c21.9-60.1-12.9-166.9-13.3-168l-.8-2.3 2.5.1c12.1.4 22.7 6.8 31.6 19.2 28.4 39.6 31.2 128.9 26.4 144.8-1.7 5.4-7 12-22.4 12Zm-20.1-6.3c3.5.9 11.9 2.9 20.1 2.9 10.7 0 17.1-3.3 19.1-9.7 4.6-15 1.4-103.7-25.9-141.7-7.6-10.6-16.5-16.5-26.4-17.6 5 16.3 32.3 109.8 13.1 166.1ZM640.9 428.2S605.2 536 627.6 597.3c0 0-37.3 11.6-43.1-7.5-5.8-19 0-160 56.4-161.6Z"/>
        <path id="_part8"
              d="M605.3 602.5c-15.5 0-20.7-6.6-22.4-12.2-4.8-15.9-2-105.2 26.4-144.8 8.9-12.4 19.5-18.8 31.6-19.2l2.5-.1-.8 2.3c-.4 1.1-35.2 107.9-13.3 168l.6 1.7-1.7.5c-.5.4-11.7 3.8-22.9 3.8Zm33.2-172.4c-9.9 1.1-18.8 7-26.4 17.6-27.3 38-30.5 126.7-25.9 141.7 2 6.5 8.4 9.7 19.1 9.7 8.2 0 16.6-2 20.1-2.9-19.3-56.3 8-149.8 13.1-166.1Z"/>
        <circle id="_part9"
                cx="836.7" cy="547.9" r="15.5"/>
        <ellipse id="_part10"
                 cx="761" cy="632.3" rx="38.3" ry="11.4"/>
        <circle id="_part11" cx="685.2" cy="547.9" r="15.5"/>
    </defs>
    <g transform="translate(-581.005 -401)">
        <g id="dark" fill="var(--light)">
            <use href="#_part1"/>
            <use href="#_part2"/>
            <use href="#_part3" fill="var(--dark)"/>
            <use href="#_part4"/>
            <use href="#_part5"/>
            <use href="#_part6"/>
            <use href="#_part7"/>
            <use href="#_part8"/>
            <use href="#_part9" fill="var(--dark)"/>
            <use href="#_part10" fill="var(--dark)"/>
            <use href="#_part11" fill="var(--dark)"/>
        </g>
        <g id="dark-disabled" fill="var(--light-disabled)">
            <use href="#_part1"/>
            <use href="#_part2"/>
            <use href="#_part3" fill="var(--dark-disabled)"/>
            <use href="#_part4"/>
            <use href="#_part5"/>
            <use href="#_part6"/>
            <use href="#_part7"/>
            <use href="#_part8"/>
            <use href="#_part9" fill="var(--dark-disabled)"/>
            <use href="#_part10" fill="var(--dark-disabled)"/>
            <use href="#_part11" fill="var(--dark-disabled)"/>
        </g>
        <g id="light" fill="var(--dark)">
            <use href="#_part1"/>
            <use href="#_part2"/>
            <use href="#_part3" fill="var(--light)"/>
            <use href="#_part4"/>
            <use href="#_part5"/>
            <use href="#_part6"/>
            <use href="#_part7"/>
            <use href="#_part8"/>
            <use href="#_part9" fill="var(--light)"/>
            <use href="#_part10" fill="var(--light)"/>
            <use href="#_part11" fill="var(--light)"/>
        </g>
        <g id="light-disabled" fill="var(--dark-disabled)">
            <use href="#_part1"/>
            <use href="#_part2"/>
            <use href="#_part3" fill="var(--light-disabled)"/>
            <use href="#_part4"/>
            <use href="#_part5"/>
            <use href="#_part6"/>
            <use href="#_part7"/>
            <use href="#_part8"/>
            <use href="#_part9" fill="var(--light-disabled)"/>
            <use href="#_part10" fill="var(--light-disabled)"/>
            <use href="#_part11" fill="var(--light-disabled)"/>
        </g>
    </g>
</svg>
