<svg width="358" height="358" viewBox="0 0 357 347" xmlns="http://www.w3.org/2000/svg">
    <path fill="#000"
          transform="translate(-1542.77 -358.925)"
          d="M1768.5 641.2c-2.9 0-5.8-.2-8.6-.6-20.3-3.1-34-18.3-34-37.9l-.2-13.9c-.1-5.4 1.8-10.7 5.4-14.7 3.4-3.8 6.9-7 10.1-9.9 1.1-1 2.1-1.9 3-2.8.8-.7 1.1-1.8.9-2.8-.2-1.1-.9-1.9-2-2.3-7.5-2.7-15.3-4.1-23-4.1-9.2 0-16.7 2-21.4 3.6-1 .4-1.7 1.2-1.9 2.3-.2 1.1.2 2.2 1.1 2.9 6.1 5 10.3 10.5 12.8 14.2 2.4 3.6 3.7 7.9 3.7 12.3v14.8c0 18.6-13.7 34.4-32 36.9-6.7.9-12.5 1-14.6 1h-.9c-91.8-8.1-86.7-76.8-85-99.4.1-1.2.2-2.3.2-3.2.4-6.8 6.8-12.6 16.6-21.3 16.6-14.8 41.6-37.3 60.9-85.2 26.4-65.9 51.7-71.8 58.8-72.1 1.6-.1 3.5-.1 5.1 0 19.3 1.7 45.1 24.5 59.5 71.6 15.2 49.8 54.5 78.3 54.9 78.6 21.7 15.5 22.6 37.5 22.6 37.7 2.2 71.2-45.4 87.4-81.4 93.3-3.6.7-7.1 1-10.6 1Zm-48.4-92.3c8.1 0 16.3 1.5 24.2 4.3 2.2.8 3.7 2.6 4.2 4.8.5 2.2-.3 4.5-1.9 6-1 .9-2 1.8-3.1 2.8-3.1 2.7-6.6 5.9-9.8 9.5-3 3.4-4.6 7.8-4.5 12.4l.2 13.9c0 17.8 12.5 31.7 31.1 34.5 2.6.4 5.3.6 8.1.6 3.3 0 6.7-.3 10.1-.8 34.7-5.7 80.6-21.3 78.5-89.8 0-.2-1.2-20.7-21.2-35-.4-.3-40.6-29.4-56.2-80.4-13.8-45.3-39-67.6-56.5-69.2-1.5-.1-3.2-.1-4.7 0-4.7.2-29.4 4.4-55.7 69.9-19.5 48.6-45 71.4-61.8 86.5-9.1 8.2-15.1 13.5-15.4 19-.1.9-.1 2-.2 3.3-1.6 21.7-6.6 87.9 81.7 95.7h.7c2.1 0 7.6-.1 14.2-1 16.5-2.3 29-16.7 29-33.5v-14.8c0-3.7-1.1-7.3-3.1-10.3-2.4-3.5-6.4-8.8-12.2-13.5a6.58 6.58 0 0 1-2.3-6.2c.4-2.3 2-4.2 4.2-4.9 4.8-1.8 12.8-3.8 22.4-3.8ZM1691.7 644.4h56.6s7.5 55.4-27.7 59.7c.1 0-35.4 3.4-28.9-59.7Z"/>
    <path fill="#000"
          transform="translate(-1542.77 -358.925)"
          d="M1719.7 705.9c-3.4 0-12.2-.9-19.6-9.1-9.3-10.3-12.7-28-10.2-52.6l.2-1.6h59.7l.2 1.5c.2 1.3 4.2 32.9-9.4 50.5-4.9 6.4-11.6 10.2-19.8 11.2 0 0-.4.1-1.1.1Zm-26.4-59.8c-2.1 22.8 1 39.1 9.4 48.4 6.6 7.3 14.7 7.9 17 7.9h.8c7.2-.9 13.1-4.2 17.5-9.9 11.1-14.4 9.5-40 8.8-46.4h-53.5ZM1887.2 408.5c-5.4-13.8-14.5-26.1-26.6-34.7-20.4-14.6-54-23.5-92.7 25.1-14.3-25.6-32-37-44.5-38.1-1.5-.1-3.3-.1-4.9 0-5.6.2-22.5 4.4-42.4 39.6-39.3-50.2-73.3-41.2-93.9-26.5-12.1 8.6-21.2 20.8-26.6 34.7-15.8 40.6-12.1 63.7-4.9 76.5 5.9 10.4 18.3 15.2 29.8 12.2 75.9-20.3 65-92.1 70.3-92.1 3.3 0 9.9 6.6 14.9 12 .4.4.8.8 1.3 1.1-1.9 4.2-3.9 8.7-5.8 13.6-30.5 75.9-76.4 89.2-77.3 106-.9 16.8-12.1 92.4 83.1 100.8 0 0 6.9.2 15.3-1 17.5-2.4 30.5-17.5 30.5-35.2v-14.8c0-4-1.2-8-3.4-11.3-2.6-3.9-6.7-9.1-12.5-13.8-2.9-2.3-2.1-6.9 1.4-8.1 9.2-3.3 25.8-6.7 45.5.5 3.3 1.2 4.3 5.6 1.7 8-3.6 3.4-8.6 7.4-13 12.5-3.3 3.7-5 8.6-4.9 13.5l.2 13.9c0 19.1 13.6 33.3 32.5 36.2 5.5.8 11.8.9 18.7-.3 34-5.6 82.1-20.5 79.9-91.6-.1-2.6-2.3-22.3-21.9-36.3 0 0-40-28.5-55.5-79.5-1.5-4.9-3.1-9.4-4.8-13.7.1-.1.3-.2.4-.4 5-5.5 11.6-12 14.9-12 5.3 0-5.6 71.8 70.3 92.1 11.5 3.1 23.9-1.8 29.8-12.2 7.3-12.9 11-36-4.9-76.7Z"/>
    <path fill="#fff"
          transform="translate(-1542.77 -358.925)"
          d="M1770.8 477.3c0 6.9-5.6 12.4-12.4 12.4-6.9 0-12.4-5.6-12.4-12.4 0-6.9 5.6-12.4 12.4-12.4 6.8-.1 12.4 5.5 12.4 12.4Z"/>
    <circle fill="#fff"
            transform="translate(-1542.77 -358.925)"
            cx="1685.5" cy="477.3" r="12.4"/>
</svg>
