<svg width="358" height="358" viewBox="0 0 358 344" xmlns="http://www.w3.org/2000/svg">
    <path fill="#fff"
          transform="translate(-1061.9 -841.6)"
          d="M1242.2 1185.1c-28 0-55.1-5.5-80.5-16.3-33.4-14.2-54.4-33.5-62.5-57.4-8-23.8-3-51.9 14.9-83.7-1.5-5.9-10.5-46.7 14-79.6 21-28.3 60.2-43.1 116.5-43.9 3.4 0 76.9.5 112.7 43.3 17.2 20.5 23 47.5 17.3 80.1 3.2 5.1 25.2 42.2 13.7 79.9-8 26.3-30.1 47-65.6 61.7-25.7 10.5-52.8 15.9-80.5 15.9Zm2.6-277.4c-55.3.8-93.6 15.1-113.9 42.5-25.2 34-13.3 76.9-13.2 77.3l.2.7-.4.6c-17.7 31.1-22.8 58.5-15 81.5 7.8 22.9 28.1 41.6 60.6 55.3 25 10.6 51.7 16 79.2 16 27.3 0 53.9-5.3 79.2-15.7 34.5-14.2 55.9-34.2 63.6-59.4 11.8-38.8-13.4-77.2-13.7-77.6l-.4-.6.1-.7c5.7-31.8.2-58.1-16.4-77.9-34.8-41.5-106.9-42-109.9-42Z"/>
    <path fill="#fff"
          transform="translate(-1061.9 -841.6)"
          d="M1116 1028s-34.4-119.7 128.6-122c0 0 150.2-1.2 128.2 122 0 0 62.3 93-50.7 139.6-51.1 21-108.9 21.3-159.7-.3-48-20.4-91.2-60.7-46.4-139.3Z"/>
    <path fill="#fff"
          transform="translate(-1061.9 -841.6)"
          d="M1242.2 1185.1c-28 0-55.1-5.5-80.5-16.3-33.4-14.2-54.4-33.5-62.5-57.4-8-23.8-3-51.9 14.9-83.7-1.5-5.9-10.5-46.7 14-79.6 21-28.3 60.2-43.1 116.5-43.9 3.4 0 76.9.5 112.7 43.3 17.2 20.5 23 47.5 17.3 80.1 3.2 5.1 25.2 42.2 13.7 79.9-8 26.3-30.1 47-65.6 61.7-25.7 10.5-52.8 15.9-80.5 15.9Zm2.6-277.4c-55.3.8-93.6 15.1-113.9 42.5-25.2 34-13.3 76.9-13.2 77.3l.2.7-.4.6c-17.7 31.1-22.8 58.5-15 81.5 7.8 22.9 28.1 41.6 60.6 55.3 25 10.6 51.7 16 79.2 16 27.3 0 53.9-5.3 79.2-15.7 34.5-14.2 55.9-34.2 63.6-59.4 11.8-38.8-13.4-77.2-13.7-77.6l-.4-.6.1-.7c5.7-31.8.2-58.1-16.4-77.9-34.8-41.5-106.9-42-109.9-42Z"/>
    <path fill="#fff"
          transform="translate(-1061.9 -841.6)"
          d="M1311.8 918.7c-33.2-12.9-67.2-12.7-67.2-12.7-32 .5-56.4 5.5-74.9 13.2l-79.7-71.6c-10.2-9.1-26.3-1.9-26.3 11.7v59.1c0 15.7 4.7 31.2 14 44 7.7 10.6 19.3 20.8 36.5 24.6-3.4 22.6 1.9 41.1 1.9 41.1-44.7 78.6-1.5 118.9 46.4 139.2 50.8 21.6 108.6 21.4 159.7.3 113-46.6 50.7-139.6 50.7-139.6 2.9-16.4 2.8-30.5.3-42.8 13.7-4.6 23.4-13.4 30.1-22.6 9.3-12.8 14.1-28.3 14.1-44.2v-59.1c0-13.7-16.2-20.9-26.3-11.7l-79.3 71.1Z"/>
    <path fill="#fff"
          transform="translate(-1061.9 -841.6)"
          d="M1242.2 1185.1c-28 0-55.1-5.5-80.5-16.3-33.4-14.2-54.4-33.5-62.5-57.4-8-23.8-3-51.9 14.9-83.7-.9-3.6-4.6-19.7-1.9-39.5-14.5-3.6-26.7-12-36-24.9-9.3-12.9-14.3-28.5-14.3-45v-59.1c0-10.8 9.1-17.6 17.6-17.6 4.3 0 8.3 1.6 11.6 4.5L1170 917c20-8.1 45.1-12.5 74.6-12.9 1.6 0 34.6.2 66.8 12.4l78.4-70.4c3.3-3 7.3-4.5 11.6-4.5 8.5 0 17.6 6.7 17.6 17.6v59.1c0 16.6-5 32.2-14.5 45.2-7.9 10.8-17.8 18.5-29.5 22.7 2.3 12.6 2.1 26.5-.5 41.3 3.2 5.1 25.2 42.2 13.7 79.9-8 26.3-30.1 47-65.6 61.7-25.6 10.6-52.7 16-80.4 16Zm-162.7-339.9c-7 0-14.2 5.3-14.2 14.1v59.1c0 15.8 4.7 30.6 13.6 42.9 9.2 12.7 21.1 20.7 35.5 23.9l1.6.4-.2 1.6c-3.4 21.9 1.8 40.1 1.8 40.3l.2.7-.4.6c-17.7 31.1-22.8 58.5-15 81.5 7.8 22.9 28.1 41.6 60.6 55.3 25 10.6 51.7 16 79.2 16 27.3 0 53.9-5.3 79.2-15.7 34.5-14.2 55.9-34.2 63.6-59.5 11.8-38.9-13.4-77.2-13.7-77.5l-.4-.6.1-.7c2.7-15.2 2.8-29.4.4-42.2l-.3-1.5 1.4-.5c11.6-3.9 21.4-11.3 29.2-22 8.9-12.2 13.8-27.5 13.8-43.2v-59.1c0-8.8-7.2-14.1-14.2-14.1-3.4 0-6.7 1.3-9.3 3.6l-80 71.9-1-.4c-32-12.5-65-12.6-66.4-12.6-29.6.4-54.6 4.8-74.4 13l-1 .4-80.5-72.3c-2.5-2.2-5.7-3.4-9.2-3.4Z"/>
    <path fill="rgba(57, 57, 61, 1)"
          transform="translate(-1061.9 -841.6)"
          d="M1244.6 930.4c16.7 0 30.2 13.5 30.2 30.2v74.4s94.9 132.5-30.2 133.6c0 0-122.4 9.3-30.2-133.6v-74.4c0-16.7 13.5-30.2 30.2-30.2Z"/>
    <path fill="#fff"
          transform="translate(-1061.9 -841.6)"
          d="M1240.2 1170.5c-12.8 0-43.8-2.5-56.6-25.8-12.7-23.4-3-60.5 29-110.1v-73.9c0-17.6 14.3-31.9 31.9-31.9 17.6 0 31.9 14.3 31.9 31.9v73.8c4.7 6.6 49 71.2 29.6 109.3-8.8 17.3-29.5 26.3-61.6 26.6.2 0-1.5.1-4.2.1Zm4.4-238.4c-15.7 0-28.5 12.8-28.5 28.5v74.9l-.3.4c-31.5 48.8-41.2 84.8-29.1 107 11.8 21.7 41.4 24 53.5 24 2.6 0 4.2-.1 4.2-.1 30.8-.3 50.5-8.6 58.6-24.7 19-37.4-29.2-105.5-29.7-106.2l-.3-.5v-74.9c0-15.6-12.7-28.4-28.4-28.4Z"/>
    <path fill="rgba(57, 57, 61, 1)"
          transform="translate(-1061.9 -841.6)"
          d="M1328 995.9c.9 12-9 21.9-21 21-9.4-.7-17.1-8.4-17.8-17.8-.9-12 9-21.9 21-21 9.4.8 17 8.4 17.8 17.8Z"/>
    <path fill="#fff"
          transform="translate(-1061.9 -841.6)"
          d="M1308.6 1018.7c-.6 0-1.1 0-1.7-.1-10.3-.8-18.6-9.2-19.4-19.4-.5-6 1.5-11.7 5.6-16.1 4.4-4.7 10.7-7.3 17.3-6.7 10.3.8 18.6 9.2 19.4 19.4.5 6-1.5 11.7-5.6 16.1-4.1 4.3-9.7 6.8-15.6 6.8Zm0-38.9c-4.9 0-9.7 2.1-13 5.7-3.4 3.7-5 8.5-4.7 13.5.7 8.6 7.7 15.6 16.2 16.2 5.5.4 10.8-1.7 14.5-5.6 3.4-3.7 5-8.5 4.7-13.5-.7-8.6-7.7-15.6-16.2-16.2-.6-.1-1-.1-1.5-.1Z"/>
    <path fill="rgba(57, 57, 61, 1)"
          transform="translate(-1061.9 -841.6)"
          d="M1197.8 995.9c.9 12-9 21.9-21 21-9.4-.7-17.1-8.4-17.8-17.8-.9-12 9-21.9 21-21 9.4.8 17.1 8.4 17.8 17.8Z"/>
    <path fill="#fff"
          transform="translate(-1061.9 -841.6)"
          d="M1178.4 1018.7c-.6 0-1.1 0-1.7-.1-10.3-.8-18.6-9.2-19.4-19.4-.5-6 1.5-11.7 5.6-16.1 4.4-4.7 10.7-7.3 17.3-6.7 10.3.8 18.6 9.2 19.4 19.4.5 6-1.5 11.7-5.6 16.1-4 4.3-9.7 6.8-15.6 6.8Zm0-38.9c-4.9 0-9.7 2.1-13 5.7-3.4 3.7-5 8.5-4.6 13.5.7 8.6 7.7 15.6 16.2 16.2 5.5.4 10.8-1.7 14.5-5.6 3.4-3.7 5-8.5 4.7-13.5-.7-8.6-7.7-15.6-16.2-16.2-.6-.1-1.1-.1-1.6-.1ZM1275.4 1113.5c0 8.5-13.8 15.3-30.8 15.3s-30.8-6.9-30.8-15.3c0-8.5 13.8-15.3 30.8-15.3s30.8 6.9 30.8 15.3Z"/>
    <path fill="#fff"
          transform="translate(-1061.9 -841.6)"
          d="M1244.6 1130.6c-18.2 0-32.5-7.5-32.5-17.1 0-9.6 14.3-17.1 32.5-17.1s32.5 7.5 32.5 17.1c0 9.6-14.2 17.1-32.5 17.1Zm0-30.7c-15.8 0-29.1 6.2-29.1 13.6 0 7.4 13.3 13.6 29.1 13.6s29.1-6.2 29.1-13.6c0-7.3-13.3-13.6-29.1-13.6Z"/>
</svg>
