<svg xmlns="http://www.w3.org/2000/svg" version="1.0" viewBox="0 0 414.11 493.4">
    <path fill="black" d="M216.955 0h1.523l1.63.602 1.488.744 1.666 1.063 1.523 1.17 1.488 1.665.744.886.745.921.78.886.885 1.205.602.921.744 1.17.603 1.062.744 1.347.602 1.205.744 1.346.603 1.347.744 1.346.46 1.382.603 1.346.602 1.347.602 1.488.461 1.524.602 1.488.426 1.524.602 1.63.319 1.346.46 1.665.284 1.347.46 1.665.142 1.488.32 1.489.283 1.523.283 1.63.177 1.524.142 1.488v1.524l.142 1.488v4.358l.142 1.488-.142 1.205-.142 1.346-.142 1.347-.177 1.382-.283 1.17-.284 1.204-.46 1.205-.32 1.204-.602 1.063-.46 1.028-.425.921-.461 1.063-.744.744-.603.886-.744.744-.602.921-1.063-.92-1.028-.745-.92-.886-.887-.744-1.063-.921-.885-.886-.78-.921-.744-.886-.886-1.063-.921-.886-.744-1.063-.603-.886-.885-1.063-.603-1.063-.744-1.027-.46-.922-.745-1.204-.602-1.028-.602-1.205-.461-1.063-.602-1.204-.461-1.028-.425-1.205-.46-1.063-.461-1.346-.426-1.063-.46-1.347-.32-1.063-.424-1.204-.142-1.17-.319-1.204-.142-1.063-.46-1.347-.142-1.205-.319-1.346-.142-1.205-.283-1.346-.177-1.205-.142-1.205v-1.204l-.142-1.347v-1.346l-.142-1.205v-4.96l.142-1.205V16.05l.142-1.204.142-1.205v-1.205l.319-1.204.141-1.17.32-1.063.14-1.346.284-1.063.142-1.205.319-1.027.319-1.205.283-1.063.284-1.205.46-.886zM96.091 25.972l.886-.46 1.205.141.602.177.744.426.922.46.886.603.92.46.887.744.885.886 1.063.921.886.886 1.205 1.205 1.063 1.063 1.205 1.346.886 1.028 1.204 1.382 1.063 1.346 1.205 1.347 1.063 1.346 1.17 1.666 1.062 1.488 1.205 1.665 1.063 1.489 1.028 1.665 1.063 1.63 1.204 1.807 1.063 1.665 1.028 1.63 1.063 1.807 1.205 1.807.744 1.666.885 1.63.922 1.665.886 1.63.744 1.524.78 1.63.743 1.665.744 1.665.461 1.489.602 1.488.426 1.523.602 1.489.319 1.204.283 1.347.32 1.346.283 1.382v4.181l-.284.744-.319.922-.425.602-.319.744-.744.46-.602.426-.886.177-.78.284h-2.232l-1.205-.142-1.204-.142-1.489-.78-1.523-.743-.886-.603-.921-.602-.886-.603-.744-.602-1.063-.744-.886-.744-1.063-.886-.886-.78-1.063-1.027-.921-.921-1.028-.886-.92-.886-1.206-1.205-1.027-1.204-1.063-1.205-.886-1.063-1.063-1.347-1.02-1.2-1.03-1.204-.921-1.204-1.028-1.347-1.063-1.346-.886-1.347-.921-1.346-.886-1.347-.921-1.382-.886-1.346-.744-1.205-.921-1.488-.886-1.347-.744-1.488-.78-1.382-.744-1.346-.602-1.347-.744-1.346-.46-1.347-.603-1.346-.567-1.347-.46-1.382-.32-1.346-.425-1.347-.177-1.204-.284-1.205v-1.028l-.318-1.381v-2.233l.177-.921v-1.17l.283-.92.32-.886.424-.922.32-.885.602-.922.425-.744.921-.602.602-.744 1.028-.603.921-.46 1.205-.425zM153.745 37.523h1.807l.885.142 1.063.319 1.063.141 1.028.284 1.063.46 1.205.461.886.46 1.204.426 1.063.602 1.205.603 1.063.602 1.17.744 1.204.921 1.205.886 1.063.744 1.027.922 1.063.885 1.205 1.063 1.063.886 1.205.922 1.027 1.027 1.205 1.205.921.921 1.028 1.205 1.063 1.027 1.063 1.205.886 1.205 1.063 1.204.885 1.205 1.063 1.347.745 1.063.744 1.204.744 1.205.921 1.347.602 1.204.744 1.205.745 1.17.744 1.346.46 1.205.46 1.204.426 1.205.602 1.205.32 1.204.46 1.205.283 1.205.32 1.346.141 1.063.142 1.028v2.268l-.142 1.063v1.027l-.142 1.063-.177 1.063-.425.886-.319.886-.46.921-.426.886-.78.744-.566.921-.78.744-.602.744-.886.32-.744.283-.921.141-.744.32h-1.63l-.93-.15h-.744l-.886-.46-.921-.284-.886-.46-.744-.461-.922-.602-.885-.603-.922-.602-.744-.602-.886-.886-.92-.921-.887-.886-.921-.886-.886-1.063-.886-1.063-.92-1.028-.745-1.063-.921-1.204-.886-1.205-.921-1.205-.744-1.205-.886-1.346-.744-1.205-.744-1.346-.603-1.205-.921-1.488-.744-1.347-.744-1.382-.744-1.346-.78-1.488-.567-1.347-.78-1.346-.425-1.347-.779-1.523-.567-1.347-.638-1.346-.425-1.347-.602-1.346-.46-1.347-.462-1.382-.283-1.17-.46-1.381-.426-1.346-.319-1.205-.141-1.205-.461-1.17-.142-1.062-.319-1.205v-.886l-.141-1.204-.142-.922v-.887l.142-.92.141-1.49.46-1.204zM67.39 77.775l.78-1.063.886-.602.886-.284 1.204.142.922.142 1.204.46 1.028.603 1.205.886.92.744 1.029.92.92.887.887 1.063.744.886.602.92.46.745.603.744.319.46.744.886.744.922.886 1.346.921 1.205 1.17 1.63.637.78.744.885.603.886.744.921.602.886.744.921.603.886.744.921.602.886.744 1.063.603 1.028.92 1.205.603.92.744 1.206.603 1.027.744 1.205.602 1.063.744 1.205.744 1.027.744 1.205.461.921.602 1.205.603 1.027.602 1.205.46.921.603 1.205.425 1.028.603 1.204.319.922.46 1.027.284 1.063.46 1.063.142.886.284 1.063.318.886.284 1.063v3.295l-.284 1.347-.46 1.523-.886 1.028-.921 1.063-1.347.886-1.346.744h-1.347l-1.063.177h-1.204l-1.028.142-1.205-.32-1.063-.141-1.204-.283-1.028-.142-1.205-.46-1.063-.461-1.204-.603-1.063-.46-1.028-.745-1.063-.602-1.063-.744-.886-.744-1.063-1.063-1.027-.886-1.063-1.063-.886-.886-.922-1.204-.885-1.063-.922-1.028-.744-1.063-.886-1.205-.92-1.204-.887-1.205-.602-1.205-.921-1.346-.567-1.347-.78-1.346-.602-1.205-.744-1.524-.603-1.346-.744-1.347-.46-1.346-.603-1.488-.567-1.347-.46-1.382-.32-1.346-.424-1.346-.46-1.347-.462-1.346-.141-1.347-.46-1.346-.143-1.382-.141-1.205v-1.17l-.32-1.381v-5.705l.142-1.027.32-.922.141-1.027.319-.922.283-.885.461-.603.886-1.523 1.346-1.028zM4.036 86.315l.461-.744.744-.283.886-.32 1.063.142.921.178 1.17.602 1.204.425 1.205.78 1.063.567 1.028.78 1.063.743 1.063.744.744.603.744.744.46.46.603.461.602.425 1.028.78.92.744 1.347.886 1.205.885 1.488 1.063 1.524 1.063 1.63 1.347.78.46.743.745.886.602.922.744.744.603.885.744.922.602.886.744.744.602.92.78.745.744.886.886.744.744.921.78.744.744.922.885 1.346 1.347 1.347 1.665 1.204 1.488 1.205 1.666.886 1.488.886 1.665.602 1.489.602 1.665.177 1.346v1.347l-.318 1.346-.461 1.524-.886 1.205-.921 1.346-.744.603-.744.602-.744.602-.745.744-.92.142-.887.319-.885.142-.922.142-1.063-.142h-.886l-1.063-.142h-.885l-1.205-.319-.886-.283-1.205-.32-.92-.283-1.206-.46-.885-.46-1.205-.426-.886-.46-1.205-.745-1.063-.602-1.204-.78-1.063-.567-1.17-.78-.92-.743-1.206-.744-.885-.744-1.205-.922-1.063-.886-1.063-.92-.886-.887-1.028-1.063-.92-.886-.887-1.063-.92-.885-1.028-1.205-.922-1.063-.886-1.028-.74-1.07-.922-1.21-.744-1.06-.744-1.03-.603-1.06-.744-1.21-.638-1.06-.566-1.17-.461-1.06-.602-1.21-.461-.88-.284-1.21-.318-.92-.426-1.2-.177-1.03-.283-1.062v-.885L0 95.484v-1.95l.283-.92v-.886l.32-.922.425-.885.46-.745 1.063-1.523 1.488-1.347zM242.925 123.873l1.665-1.063 1.807-.602 1.63-.603 1.665-.283 1.489-.319 1.523.177h1.347l1.488.425 1.205.32 1.346.602 1.205.602 1.204.886 1.063.744 1.205 1.063.886 1.205 1.063 1.346.744 1.205.744 1.346.744 1.489.78 1.665.425 1.488.602 1.807.46 1.807.603 1.95.284 1.806.319 2.09.141 1.985.32 2.09v8.54l-.32 2.126-.283 2.09-.46 2.091-.32 2.126-.602 2.091-.602 2.09-.567 2.127-.603 2.232-.92 1.949-.887 1.949-1.063 1.948-.886 1.985-1.204 1.63-1.205 1.807-1.205 1.807-1.204 1.807-1.666 1.346-1.488 1.488-1.665 1.347-1.489 1.382-1.807 1.027-1.807 1.205-1.949.921-1.948 1.028-2.233.602-2.126.744-2.232.461-2.268.46-2.55.142-2.41.142-2.693-.142-2.551-.141-1.205-.32-1.063-.283-1.17-.319-1.062-.141-1.205-.46-.921-.284-1.17-.461-.92-.283-1.206-.603-1.027-.46-1.063-.603-1.063-.46-1.028-.745-1.063-.602-.886-.602-.92-.603-1.064-.885-1.027-.745-.922-.744-.886-.78-.92-.885-.887-.886-.885-.921-.78-.744-.886-1.063-.886-.886-.78-1.063-.602-.886-.885-1.063-.603-.886-.744-1.063-.46-.886-.745-1.204-.602-1.063-.46-1.205-.426-1.063-.602-1.205-.46-1.027-.461-1.063-.284-1.063-.46-1.17-.284-1.063-.319-1.204V166.5l-.283-1.17v-6.626l.283-1.063.142-1.169.319-1.063.283-1.205.46-.885.284-1.205.461-1.063.602-1.063.744-.886.603-1.063.744-.886.921-.92.886-.887.921-1.346 1.205-1.347 1.028-1.204 1.346-.922 1.063-1.204 1.205-.886 1.346-.886 1.347-.78 1.346-.885 1.382-.603 1.346-.744 1.347-.602 1.346-.603 1.489-.602 1.523-.46 1.63-.426 1.347-.637 1.523-.426 1.488-.46 1.666-.461 1.488-.425 1.665-.46 1.489-.461 1.665-.461 1.488-.567 1.666-.46 1.488-.461 1.665-.46.744-.426.744-.142.922-.46.885-.178.745-.283.78-.284.885-.318.886-.142z"/>
    <path fill="black" d="m9.742 148.183.744-1.17.92-.779.887-.602h.92l.887-.142 1.063.46 1.027.426 1.063.78.744.602.922.744.886.744.885.921 1.205 1.347.921 1.027.461.461.744.744.744.744 1.063.922.886.885 1.063 1.063 1.205 1.063 1.346 1.347 1.205 1.205 1.17 1.346 1.381 1.346 1.347 1.347 1.204 1.346 1.347 1.489 1.346 1.523 1.347 1.63 1.063 1.382 1.027 1.63 1.063 1.346 1.063 1.666.744 1.346.886 1.665.603 1.347.602 1.665.319 1.205.142 1.346v2.693l-.461 1.063-.46 1.17-.745 1.063-.744 1.204-.886.32-.744.283-.921.283-.744.32h-.886l-.921.14h-.885l-.78.143-.886-.284-.885-.142-.922-.177-.885-.142-.922-.425-.886-.319-.92-.46-.887-.284-1.063-.602-.885-.602-1.063-.603-.886-.602-1.063-.744-.886-.744-.921-.78-.886-.602-.886-.886-.921-.886-.886-.921-.921-.744-.886-.886-.744-.921-.78-.886-.744-.921-.886-1.205-.744-.886-.78-1.205-.743-.886-.745-1.204-.602-1.063-.744-1.063-.46-1.028-.603-1.205-.602-1.063-.426-1.063-.46-1.027-.46-1.205-.461-.886-.284-1.204-.142-.922-.46-1.204-.142-1.028-.319-1.063-.142-.886-.141-1.063v-1.949l.144-.91v-.885l.141-.922.142-.885.46-.745.745-1.523 1.063-1.347zM117.704 192.793l1.95-1.205 1.948-.744 1.949-.744 2.126-.46 1.772-.461h1.807l1.807-.142 1.949.32 1.665.14 1.63.461 1.665.426 1.666.92 1.488.603 1.488 1.028 1.382.921 1.488 1.347 1.205 1.063 1.205 1.346 1.027 1.347 1.205 1.488.921 1.488 1.063 1.665.886 1.807 1.027 1.808.638 1.807.744 1.807.603 1.949.567 1.948.319 1.95.46 2.09.284 1.949.46 2.267v4.04l-.141 2.126v2.09l-.32 2.09-.141 2.127-.46 2.09-.461 2.091-.744 1.949-.603 1.949-.744 1.984-.744 2.09-1.063 1.808-1.028 1.948-1.204 1.807-1.063 1.95-1.488 1.487-1.524 1.666-1.63 1.488-1.665 1.524-1.95 1.346-1.948 1.347-2.09 1.027-1.95 1.205-2.409.921-2.41.886-2.692.602-2.551.744-2.87.32-2.835.46-3.012.283-3.012.142-2.409-.142-2.232-.141-2.126-.142-2.09-.177-2.091-.425-1.95-.32-1.948-.46-1.807-.283-1.807-.603-1.807-.602-1.666-.744-1.488-.603-1.665-.744-1.489-.78-1.346-.885-1.205-.744-1.346-1.063-1.347-.886-1.204-1.063-.922-1.063-1.027-1.17-.922-1.062-.885-1.205-.603-1.063-.921-1.346-.425-1.347-.603-1.346-.319-1.205-.425-1.346-.319-1.347-.141-1.382v-1.346l-.142-1.63v-3.012l.283-1.488.142-1.666.46-1.488.461-1.523.744-1.489.461-1.807.886-1.488.744-1.807 1.063-1.524.886-1.63 1.205-1.665 1.204-1.63 1.524-1.523 1.346-1.808 1.489-1.63 1.523-1.665 1.772-1.488 1.807-1.807 1.949-1.524 1.949-1.63 2.267-1.523 2.09-1.772 2.41-1.523 2.268-1.63 2.693-1.524 2.551-1.488 2.835-1.524 2.87-1.488 3.153-1.346zM137.835 361.273l-21.614-5.846-.922.602-.886.886-1.204.921-1.205 1.17-1.488 1.062-1.524 1.205-1.63 1.347-1.523 1.346-1.028.46-.921.745-.886.602-.921.744-1.028.46-.921.745-.886.602-.921.744-1.028.603-1.063.602-.886.602-.92.744-1.028.461-1.063.602-.922.603-.886.602-1.063.284-1.027.46-1.063.46-.921.426-1.028.319-.886.319-.921.283-.886.284-.921.177-.886.142h-.928l-.744.141H77.59l-.744-.141h-.602l-1.346-.603-1.205-.744-1.028-1.063-.744-1.204-.46-.886-.461-.744-.284-.922-.177-.744-.141-1.204-.142-1.063v-4.784l.142-1.063.46-.886.425-1.063.461-.886.46-.78.745-.566 1.204-1.524 1.666-1.204.886-.603.885-.46 1.063-.425 1.063-.461.886-.46.922-.426 1.027-.46 1.063-.461.921-.46 1.17-.426.921-.46 1.205-.284.886-.602.92-.461.887-.46.885-.461.78-.567.886-.603.744-.602.921-.602.284-1.063.46-1.063.284-1.028.46-.921.142-1.205.319-.886.283-1.204.32-.886v-1.205l.141-1.063.142-1.205.141-1.063v-1.169l.178-.921v-1.205l.141-.886v-6.449l.142-.92.142-.887v-.921l.177-.886.142-.921.283-.744.32-.886.283-.744.46-.78.46-.567.426-1.063.46-.92.603-.887.602-.744.886-1.346 1.205-1.063 1.063-1.063 1.063-.425 1.028-.603h1.204l.921-.142 1.028.284 1.063.283 1.063.603.886.602 1.063.921.886.886 1.063 1.205.744 1.063.744 1.205.744 1.346.78 1.488.602 1.347.744 1.665.283.744.32.744.283.922.46.885.284 1.489.46 1.665.32 1.488.425 1.666.141 1.488.32 1.523.141 1.489.142 1.523h4.677l2.232.142 2.41.283 2.09.178 2.268.283 2.09.46 2.126.426 1.95.319 1.948.46 1.949.603 1.949.602 1.807.425 1.807.603 1.807.602 1.949.744 1.63.46 1.665.745 1.63.602 1.842.744 1.489.603 1.807.78 1.488.566 1.807.78 1.488.425 1.807.602 1.524.603 1.772.602 1.665.46 1.665.603 1.772.46 1.807.603 1.666.283 1.665.32 1.772.283 1.807.283h1.807l1.807.177h1.949l1.949.142 1.807-.319 2.09-.142 1.95-.283 2.267-.142 2.267-.46 2.233-.461 2.267-.602 2.374-.426 2.268-.92 2.551-.887 2.41-1.063 2.693-.92 2.693-1.347 2.728-1.205 2.835-1.488 3.011-1.347 2.835-1.807 3.189-1.665 3.118-1.949 3.472-1.949 3.154-2.232 3.614-2.268 3.579-2.55 3.756-2.41.921-.886 1.028-.921.92-.745 1.028-.744.922-.885 1.063-.78 1.027-.744 1.063-.744.886-.886 1.063-.78 1.063-.744 1.028-.744.921-.886 1.028-.602 1.063-.921 1.063-.603.885-.885.922-.744.886-.922 1.063-.744.885-.886 1.063-.78.886-.743 1.063-.744.886-.886.921-.921.886-.886.921-.744.886-.922.886-.885.921-.922 1.028-.744.78-1.063.744-.886.744-.885.92-.922.745-1.027.744-1.063.744-1.063.886-.886.602-1.205.78-.921.744-1.17.744-.92.602-1.205.745-1.028.602-1.205.744-1.063.46-1.346.603-1.205.602-1.204.603-1.205.46-1.347.567-1.346.46-1.347.603-1.346.46-1.524.461-1.346.426-1.488.46-1.347.32-1.665.283-1.488.283-1.524.46-1.488-.141-1.063v-3.012l-.142-1.028-.177-1.063-.142-1.063-.141-.885-.284-1.063-.319-.886-.319-1.063-.283-.886-.284-.921-.318-.886-.284-.921-.319-.886-.425-1.063-.46-.886-.461-.886-.284-.921-.46-.886-.32-.921-.424-.886-.32-.744-.46-.921-.425-.886-.46-.922-.461-.744-.744-1.665-.603-1.488-.886-1.666-.602-1.488-.602-1.665-.461-1.347-.46-1.346-.142-1.347-.142-1.346.142-1.205v-1.346l.318-1.063.426-1.205.921-.886.744-1.063 1.205-.886.602-.46.744-.46.886-.426.921-.319 1.063-.744 1.028-.46 1.063-.426 1.027-.177.922-.284h1.807l.886.142 1.346.319 1.524.744 1.346.886 1.347 1.205 1.063 1.063 1.169 1.346 1.205 1.205 1.382 1.346 1.169 1.063 1.523 1.205.745.284.92.46.887.425 1.063.461h2.09l1.063-.142 1.205-.141 1.028-.461 1.063-.46.885-.603 1.063-.425.886-.922.921-.885.886-.922.922-.885.744-1.063.885-1.028.922-1.063.886-.886.744-1.205.78-1.204.743-1.205.886-.921.744-1.205.744-1.028.78-.92.886-.887.744-1.063.921-.744.744-.886.886-.46.921-.603.886-.283.921-.46h1.028l1.063-.461 1.063-.142.886-.142 1.063.142h.886l.92.425.745.46.744.745.46.46.603.922.425.744.46 1.027.284.922.46 1.027.32 1.063.283 1.347v1.063l.142 1.205v1.063l.177 1.346-.177 1.028v1.204l-.142 1.205v1.347l-.283 1.063-.177 1.063-.284 1.027-.142 1.205-.318.921-.284.886-.319.744-.283.921-.922.744-.885.886-.886.921-.78.886-.886.744-.744.922-.92.744-.745.921-.886.567-.921.921-.886.603-.921.885-.886.603-.886.744-.921.78-.886.743-1.063.603-1.063.602-1.028.603-.92.744-1.028.602-.922.602-1.027.603-.922.744-1.063.425-1.027.78-1.063.602-1.063.744-1.028.602-1.063.744-1.027.603-.922.744-5.704 34.547 3.153 1.665 3.296 1.772 3.153 1.807 3.295 2.09 3.154 1.985 3.154 2.232 3.011 2.268 3.154 2.374 2.87 2.268 2.835 2.55 2.692 2.41 2.87 2.693 2.552 2.693 2.693 2.728 2.55 2.835 2.73 3.012 2.232 2.693 2.267 3.011 2.233 3.012 2.267 3.154 1.949 3.153 2.09 3.154 1.95 3.295 1.984 3.295 1.63 3.154 1.665 3.295 1.488 3.33 1.524 3.615 1.169 3.295 1.382 3.437 1.028 3.473 1.204 3.579.744 3.472.922 3.437.602 3.472.602 3.615.284 3.437.46 3.614.142 3.578.142 3.615-.142 3.437-.142 3.614-.46 3.472-.284 3.579-.78 3.472-.566 3.615-.921 3.437-.886 3.614-1.382 3.295-1.347 3.472-1.488 3.437-1.488 3.437-1.984 3.331-1.772 3.295-2.126 3.296-2.09 3.295-2.552 3.154-2.55 3.153-2.694 3.154-2.87 3.153-3.153 2.87-3.154 3.012-3.437 2.976-3.472 3.012-1.028.46-1.063.426-1.063.638-.886.567-1.063.46-.886.603-1.063.602-.885.602-1.063.461-1.063.602-1.028.603-1.063.602-1.063.425-1.028.603-1.063.602-.92.602-1.17.461-1.063.602-1.205.461-1.063.602-1.17.426-1.062.46-1.205.46-1.063.603-1.205.284-1.204.46-1.17.461-1.063.425-1.204.32-1.205.283-1.205.318-1.027.426-5.103.319-4.677.46-4.642.142-4.358.283-4.5-.141h-4.075l-4.04-.284-3.613-.177-3.898-.602-3.472-.426-3.437-.78-3.154-.566-3.295-.921-3.012-.886-2.834-1.063-2.729-1.063-2.834-1.347-2.552-1.346-2.728-1.488-2.232-1.347-2.41-1.665-2.267-1.488-2.091-1.807-1.949-1.666-2.09-1.949-1.95-1.948-1.806-1.95-1.807-1.948-1.807-2.126-1.666-2.09-1.63-2.091-1.346-2.126-1.666-2.41-1.488-2.232-1.523-2.41-1.347-2.409-1.346-2.55-1.347-2.375-1.346-2.41-1.347-2.409-1.346-2.55-1.382-2.552-1.347-2.551-1.204-2.551-1.347-2.552-1.346-2.55-1.347-2.552-1.205-2.41-1.488-2.692-1.382-2.552-1.488-2.586-1.346-2.551-1.489-2.552-1.523-2.409-1.488-2.516-1.524-2.41-1.772-2.55-1.665-2.41-1.807-2.41-1.807-2.267-1.949-2.374-1.807-2.268-2.09-2.09-1.95-2.126-1.062-.886-1.028-.886-1.382-.78-1.17-.602-1.665-.744-1.488-.602-.921-.425-.886-.32-.921-.283-.744-.177-1.063-.425-1.028-.319-1.063-.283-.886-.32-1.063-.283-1.063-.177-1.027-.283-.922-.142-1.204-.46-1.028-.143-1.205-.318z"/>
</svg>
