<svg width="24" height="24" viewBox="0 0 24 24" xmlns="http://www.w3.org/2000/svg">
    <defs>
        <style>
            :root {
            --dark: rgba(0, 32, 51, 1);
            --light: rgba(255,255,255,0.8);
            }
            g[id] { display: none }
            g[id]:target { display: inline }
        </style>

        <path id="_add"
              d="M15 12c2.21 0 4-1.79 4-4s-1.79-4-4-4-4 1.79-4 4 1.79 4 4 4zm-9-2V7H4v3H1v2h3v3h2v-3h3v-2H6zm9 4c-2.67 0-8 1.34-8 4v2h16v-2c0-2.66-5.33-4-8-4z"/>
        <path id="_back"
              d="M20 11H7.83l5.59-5.59L12 4l-8 8 8 8 1.41-1.41L7.83 13H20v-2z"/>
        <path id="_casino"
              d="M19 3H5c-1.1 0-2 .9-2 2v14c0 1.1.9 2 2 2h14c1.1 0 2-.9 2-2V5c0-1.1-.9-2-2-2zM7.5 18c-.83 0-1.5-.67-1.5-1.5S6.67 15 7.5 15s1.5.67 1.5 1.5S8.33 18 7.5 18zm0-9C6.67 9 6 8.33 6 7.5S6.67 6 7.5 6 9 6.67 9 7.5 8.33 9 7.5 9zm4.5 4.5c-.83 0-1.5-.67-1.5-1.5s.67-1.5 1.5-1.5 1.5.67 1.5 1.5-.67 1.5-1.5 1.5zm4.5 4.5c-.83 0-1.5-.67-1.5-1.5s.67-1.5 1.5-1.5 1.5.67 1.5 1.5-.67 1.5-1.5 1.5zm0-9c-.83 0-1.5-.67-1.5-1.5S15.67 6 16.5 6s1.5.67 1.5 1.5S17.33 9 16.5 9z"/>
        <path id="_close"
              d="M19 6.41L17.59 5 12 10.59 6.41 5 5 6.41 10.59 12 5 17.59 6.41 19 12 13.41 17.59 19 19 17.59 13.41 12z"/>
        <path id="_edit"
              d="M18.41 5.8 17.2 4.59c-.78-.78-2.05-.78-2.83 0l-2.68 2.68L3 15.96V20h4.04l8.74-8.74 2.63-2.63c.79-.78.79-2.05 0-2.83zM6.21 18H5v-1.21l8.66-8.66 1.21 1.21L6.21 18zM11 20l4-4h6v4H11z"/>
        <path id="_menu"
              d="M3 18h18v-2H3v2zm0-5h18v-2H3v2zm0-7v2h18V6H3z"/>
        <path id="_save"
              d="M17 3H5c-1.11 0-2 .9-2 2v14c0 1.1.89 2 2 2h14c1.1 0 2-.9 2-2V7l-4-4zm-5 16c-1.66 0-3-1.34-3-3s1.34-3 3-3 3 1.34 3 3-1.34 3-3 3zm3-10H5V5h10v4z"/>
        <path id="_delete"
              d="M14 8c0-2.21-1.79-4-4-4S6 5.79 6 8s1.79 4 4 4 4-1.79 4-4zm3 2v2h6v-2h-6zM2 18v2h16v-2c0-2.66-5.33-4-8-4s-8 1.34-8 4z"/>
        <path id="_down"
                d="m7 10 5 5 5-5z" />
    </defs>

    <g id="add" fill="var(--dark)">
        <use href="#_add"/>
    </g>
    <g id="add-white" fill="var(--light)">
        <use href="#_add"/>
    </g>

    <g id="back" fill="var(--dark)">
        <use href="#_back"/>
    </g>
    <g id="back-white" fill="var(--light)">
        <use href="#_back"/>
    </g>

    <g id="casino" fill="var(--dark)">
        <use href="#_casino"/>
    </g>
    <g id="casino-white" fill="var(--light)">
        <use href="#_casino"/>
    </g>

    <g id="close" fill="var(--dark)">
        <use href="#_close"/>
    </g>
    <g id="close-white" fill="var(--light)">
        <use href="#_close"/>
    </g>

    <g id="edit" fill="var(--dark)">
        <use href="#_edit"/>
    </g>
    <g id="edit-white" fill="var(--light)">
        <use href="#_edit"/>
    </g>

    <g id="menu" fill="var(--dark)">
        <use href="#_menu"/>
    </g>
    <g id="menu-white" fill="var(--light)">
        <use href="#_menu"/>
    </g>

    <g id="save" fill="var(--dark)">
        <use href="#_save"/>
    </g>
    <g id="save-white" fill="var(--light)">
        <use href="#_save"/>
    </g>

    <g id="down" fill="var(--dark)">
        <use href="#_down"/>
    </g>
    <g id="down-white" fill="var(--light)">
        <use href="#_down"/>
    </g>

    <g id="delete" fill="#f00">
        <use href="#_delete" />
    </g>
    <g id="delete-white" fill="#f55">
        <use href="#_delete" />
    </g>
</svg>
