<svg width="358" height="358" viewBox="0 0 250 358" xmlns="http://www.w3.org/2000/svg">
    <defs>
        <style>
            :root {
            --dark: rgba(57, 57, 61, 1);
            --dark-disabled: rgba(57, 57, 61, .2);
            --light: rgba(247, 248, 251, 1);
            --light-disabled: rgba(247, 248, 251, .2);
            }
            g[id] { display: none }
            g[id]:target { display: inline }
        </style>
        <path id="_part1"
              d="M793.9 875.2s39.6 9.6 56.7 28.7c0 0 9.6-37.6-4.8-67 0 0-27.3 9.6-51.9 38.3Z"/>
        <path id="_part2"
              d="m851.4 907.5-2.1-2.4c-16.5-18.5-55.4-28.1-55.8-28.2l-2.7-.7 1.8-2.1c24.6-28.7 51.5-38.4 52.7-38.8l1.4-.5.7 1.4c14.5 29.6 5.3 66.6 4.9 68.1l-.9 3.2ZM797 874.2c8.9 2.4 37.1 11 52.6 26.1 1.8-9.3 6-37.9-4.7-61.3-5.7 2.5-27.6 12.4-47.9 35.2ZM725.9 875.2s-39.6 9.6-56.7 28.7c0 0-9.6-37.6 4.8-67 0 0 27.3 9.6 51.9 38.3Z"/>
        <path id="_part3"
              d="m668.4 907.5-.8-3.1c-.4-1.6-9.6-38.5 4.9-68.1l.7-1.4 1.4.5c1.1.4 28.1 10 52.7 38.8l1.8 2.1-2.7.7c-.4.1-39.3 9.7-55.8 28.2l-2.2 2.3Zm6.5-68.4c-10.7 23.4-6.5 51.9-4.7 61.3 15.5-15.1 43.7-23.7 52.6-26.1-20.3-22.9-42.2-32.8-47.9-35.2ZM727.6 1166.7l10.9-26 10.9 46.7 10.7-17.1 11 17.1 9.3-46.6 13.1 26.4c1.2-21.9 36.1-68.9 36.1-68.9 19.6-16.4 15-53.8 15-53.8 8.2 5 21.6 22.6 21.6 22.6 2-11.6-3-60.4-3-60.4l17.8 15c2.2-13.3 1.3-26.1-1-37.7-6-29.5-23-55.4-46.8-73.9-53.7-41.6-102.5-28.2-134.5-8.8-27.9 16.8-47.8 44-56.1 75.5-3.4 12.9-5.9 28-5.9 44.5l18.4-13.7s-2.7 47.1-.7 58.1l20.5-22.5s-3.4 34.8 16.4 57.4c19.9 22.6 36.3 66.1 36.3 66.1Z"/>
        <path id="_part4"
              d="m772 1192-11.8-18.4-11.5 18.3-10.7-45.6-10.6 25.1-1.5-4c-.2-.4-16.5-43.5-35.9-65.5-15.9-18-17.2-43.3-17.1-53.8l-19.6 21.6-.6-3.4c-1.7-9.3-.1-43.5.5-54.8l-18.3 13.5v-3.4c0-14.8 2-29.9 6-45 8.5-32.3 28.7-59.5 56.9-76.5 20.6-12.4 41.6-18.7 62.6-18.7 25.3 0 50.2 9.3 73.9 27.7 24.6 19 41.4 45.6 47.4 74.9 2.7 13.3 3.1 26.2 1 38.4l-.5 3-16.8-14.2c1.2 12.2 4.3 46.8 2.5 56.6l-.7 3.8-2.4-3.1c-.1-.1-10.5-13.6-18.3-20 .6 10.1.6 37.4-15.8 51.3-2.2 3-34.6 47.4-35.7 67.9l-.4 6.5-13.7-27.7-8.9 45.5Zm-33-56.8 11.2 47.8 10-15.9 10.2 15.8 9.4-47.3 12.9 26.1c5.4-23.4 34.3-62.5 35.6-64.3l.3-.3c18.7-15.6 14.5-51.9 14.4-52.2l-.4-3.5 3 1.9c6.2 3.8 15.1 14.2 19.4 19.6.7-15.8-3.3-55.3-3.4-55.8l-.4-4.2 18.7 15.8c1.4-10.9.9-22.3-1.5-34.1-5.8-28.4-22.2-54.3-46.1-72.8-23.1-17.9-47.2-26.9-71.8-26.9-20.3 0-40.7 6.1-60.8 18.2-27.4 16.5-47.1 43-55.4 74.4-3.6 13.6-5.6 27.3-5.8 40.7l18.6-13.8-.2 3.7c0 .4-2.2 39.1-1.1 54l21.4-23.6-.5 5.2c0 .3-3.1 34.4 16 56.1 16.5 18.8 30.4 51.3 35 62.6l11.3-27.2Z"/>
        <path id="_part5"
              d="M766.3 899c-5.1-2-9.7-2.2-14.5.4-5.1 2.8-11.3 7.9-11 16.2.4 13.3 25.2 52.1-9.2 104.1-3.7 5.6-6.3 11.7-7.6 18.3-2.2 11.2-1.3 26.3 15.8 35 8 4.1 17.1 5.3 25.9 4 17.2-2.5 45.2-13 23.5-55.2-24.7-48-17-88.5-13.4-101.5 1.4-5.2.7-10.9-2.2-15.4-1.8-2.4-4-4.6-7.3-5.9Z"/>
        <circle id="_part6"
                cx="808.8" cy="962.8" r="13.5"/>
        <circle id="_part7"
                cx="711.2" cy="962.8" r="13.5"/>
        <ellipse id="_part8"
                 cx="760.2" cy="1049" rx="19.6" ry="13.8"/>
    </defs>
    <g transform="translate(-634.9 -834.8)">
        <g id="dark" fill="var(--light)">
            <use href="#_part1"/>
            <use href="#_part2"/>
            <use href="#_part3"/>
            <use href="#_part4"/>
            <use href="#_part5" fill="var(--dark)"/>
            <use href="#_part6" fill="var(--dark)"/>
            <use href="#_part7" fill="var(--dark)"/>
            <use href="#_part8"/>
        </g>
        <g id="dark-disabled" fill="var(--light-disabled)">
            <use href="#_part1"/>
            <use href="#_part2"/>
            <use href="#_part3"/>
            <use href="#_part4"/>
            <use href="#_part5" fill="var(--light-disabled)"/>
            <use href="#_part6" fill="var(--light-disabled)"/>
            <use href="#_part7" fill="var(--light-disabled)"/>
            <use href="#_part8"/>
        </g>
        <g id="light" fill="var(--dark)">
            <use href="#_part1"/>
            <use href="#_part2"/>
            <use href="#_part3"/>
            <use href="#_part4"/>
            <use href="#_part5" fill="var(--light)"/>
            <use href="#_part6" fill="var(--light)"/>
            <use href="#_part7" fill="var(--light)"/>
            <use href="#_part8"/>
        </g>
        <g id="light-disabled" fill="var(--dark-disabled)">
            <use href="#_part1"/>
            <use href="#_part2"/>
            <use href="#_part3"/>
            <use href="#_part4"/>
            <use href="#_part5" fill="var(--dark-disabled)"/>
            <use href="#_part6" fill="var(--dark-disabled)"/>
            <use href="#_part7" fill="var(--dark-disabled)"/>
            <use href="#_part8"/>
        </g>
    </g>
</svg>
