<svg width="358" height="358" viewBox="0 0 358 344" xmlns="http://www.w3.org/2000/svg">
    <defs>
        <style>
            :root {
            --dark: rgba(57, 57, 61, 1);
            --dark-disabled: rgba(57, 57, 61, .2);
            --light: rgba(247, 248, 251, 1);
            --light-disabled: rgba(247, 248, 251, .2);
            }
            g[id] { display: none }
            g[id]:target { display: inline }
        </style>
        <path id="_part1"
              d="M1311.8 918.7c-33.2-12.9-67.2-12.7-67.2-12.7-32 .5-56.4 5.5-74.9 13.2l-79.7-71.6c-10.2-9.1-26.3-1.9-26.3 11.7v59.1c0 15.7 4.7 31.2 14 44 7.7 10.6 19.3 20.8 36.5 24.6-3.4 22.6 1.9 41.1 1.9 41.1-44.7 78.6-1.5 118.9 46.4 139.2 50.8 21.6 108.6 21.4 159.7.3 113-46.6 50.7-139.6 50.7-139.6 2.9-16.4 2.8-30.5.3-42.8 13.7-4.6 23.4-13.4 30.1-22.6 9.3-12.8 14.1-28.3 14.1-44.2v-59.1c0-13.7-16.2-20.9-26.3-11.7l-79.3 71.1Z"/>
        <path id="_part2"
              d="M1244.6 930.4c16.7 0 30.2 13.5 30.2 30.2v74.4s94.9 132.5-30.2 133.6c0 0-122.4 9.3-30.2-133.6v-74.4c0-16.7 13.5-30.2 30.2-30.2Z"/>
        <path id="_part3"
              d="M1328 995.9c.9 12-9 21.9-21 21-9.4-.7-17.1-8.4-17.8-17.8-.9-12 9-21.9 21-21 9.4.8 17 8.4 17.8 17.8Z"/>
        <path id="_part4"
              d="M1308.6 1018.7c-.6 0-1.1 0-1.7-.1-10.3-.8-18.6-9.2-19.4-19.4-.5-6 1.5-11.7 5.6-16.1 4.4-4.7 10.7-7.3 17.3-6.7 10.3.8 18.6 9.2 19.4 19.4.5 6-1.5 11.7-5.6 16.1-4.1 4.3-9.7 6.8-15.6 6.8Zm0-38.9c-4.9 0-9.7 2.1-13 5.7-3.4 3.7-5 8.5-4.7 13.5.7 8.6 7.7 15.6 16.2 16.2 5.5.4 10.8-1.7 14.5-5.6 3.4-3.7 5-8.5 4.7-13.5-.7-8.6-7.7-15.6-16.2-16.2-.6-.1-1-.1-1.5-.1Z"/>
        <path id="_part5"
              d="M1197.8 995.9c.9 12-9 21.9-21 21-9.4-.7-17.1-8.4-17.8-17.8-.9-12 9-21.9 21-21 9.4.8 17.1 8.4 17.8 17.8Z"/>
        <path id="_part6"
              d="M1178.4 1018.7c-.6 0-1.1 0-1.7-.1-10.3-.8-18.6-9.2-19.4-19.4-.5-6 1.5-11.7 5.6-16.1 4.4-4.7 10.7-7.3 17.3-6.7 10.3.8 18.6 9.2 19.4 19.4.5 6-1.5 11.7-5.6 16.1-4 4.3-9.7 6.8-15.6 6.8Zm0-38.9c-4.9 0-9.7 2.1-13 5.7-3.4 3.7-5 8.5-4.6 13.5.7 8.6 7.7 15.6 16.2 16.2 5.5.4 10.8-1.7 14.5-5.6 3.4-3.7 5-8.5 4.7-13.5-.7-8.6-7.7-15.6-16.2-16.2-.6-.1-1.1-.1-1.6-.1ZM1275.4 1113.5c0 8.5-13.8 15.3-30.8 15.3s-30.8-6.9-30.8-15.3c0-8.5 13.8-15.3 30.8-15.3s30.8 6.9 30.8 15.3Z"/>
    </defs>
    <g transform="translate(-1061.9 -841.6)">
        <g id="dark" fill="var(--light)">
            <use href="#_part1"/>
            <use href="#_part2" fill="var(--dark)"/>
            <use href="#_part3" fill="var(--dark)"/>
            <use href="#_part4"/>
            <use href="#_part5" fill="var(--dark)"/>
            <use href="#_part6"/>
        </g>
        <g id="dark-disabled" fill="var(--light-disabled)">
            <use href="#_part1"/>
            <use href="#_part2" fill="var(--dark-disabled)"/>
            <use href="#_part3" fill="var(--dark-disabled)"/>
            <use href="#_part4"/>
            <use href="#_part5" fill="var(--dark-disabled)"/>
            <use href="#_part6"/>
        </g>
        <g id="light" fill="var(--dark)">
            <use href="#_part1"/>
            <use href="#_part2" fill="var(--light)"/>
            <use href="#_part3" fill="var(--light)"/>
            <use href="#_part4"/>
            <use href="#_part5" fill="var(--light)"/>
            <use href="#_part6"/>
        </g>
        <g id="light-disabled" fill="var(--dark-disabled)">
            <use href="#_part1"/>
            <use href="#_part2" fill="var(--light-disabled)"/>
            <use href="#_part3" fill="var(--light-disabled)"/>
            <use href="#_part4"/>
            <use href="#_part5" fill="var(--light-disabled)"/>
            <use href="#_part6"/>
        </g>
    </g>
</svg>
